<?xml version="1.0" standalone="no"?><!DOCTYPE svg PUBLIC "-//W3C//DTD SVG 1.1//EN" "http://www.w3.org/Graphics/SVG/1.1/DTD/svg11.dtd"><svg t="1586368959558" class="icon" viewBox="0 0 1024 1024" version="1.1" xmlns="http://www.w3.org/2000/svg" p-id="4711" xmlns:xlink="http://www.w3.org/1999/xlink" width="32" height="32"><defs><style type="text/css"></style></defs><path d="M949.3 406.5l-420-331.2c-10.2-8-24.5-8-34.7 0l-420 331.2c-12.2 9.6-14.3 27.2-4.7 39.4 9.6 12.2 27.2 14.3 39.4 4.7l56.4-44.5v520.4c0 15.5 12.6 28.1 28.1 28.1H405c15.5 0 28.1-12.6 28.2-28 0-1.1-0.1-2.2-0.2-3.3V668.6h157.7v258c0 15.5 12.6 28.1 28.1 28.1h227.1c15.5 0 28-12.6 28.1-28.1V418.7l40.6 32c5.1 4 11.2 6 17.3 6 8.3 0 16.5-3.7 22.1-10.8 9.5-12.2 7.5-29.8-4.7-39.4z m-131.5 492H647v-258c0-15.5-12.6-28.1-28.1-28.1H405.1c-15.6 0-28.1 12.6-28.1 28.1v258.1H222V373.2c0-3.5-0.6-6.9-1.8-10L512 133.1l305.9 241.2v524.2z" p-id="4712" fill="#707070"></path></svg>