<?xml version="1.0" standalone="no"?><!DOCTYPE svg PUBLIC "-//W3C//DTD SVG 1.1//EN" "http://www.w3.org/Graphics/SVG/1.1/DTD/svg11.dtd"><svg t="1586369002947" class="icon" viewBox="0 0 1024 1024" version="1.1" xmlns="http://www.w3.org/2000/svg" p-id="5963" xmlns:xlink="http://www.w3.org/1999/xlink" width="32" height="32"><defs><style type="text/css"></style></defs><path d="M285.70112 192.114688l664.96 0-89.00608 378.70592L288.736256 630.152192l16.956416 82.338816c0 11.036672 8.96 20.016128 19.990528 20.016128l499.777536 0 0 40.025088L325.6832 772.532224c-32.308224 0-58.742784-25.721856-59.932672-57.790464L145.763328 133.99552c-3.74784-4.875264-17.8432-12.685312-23.348224-15.72352-3.356672-1.865728-6.990848-3.867648-10.267648-6.21568L65.799168 112.05632l0-40.02816 59.973632 0c0 0 58.15808 34.558976 59.876352 57.542656l94.976 461.186048 548.625408-56.82176 70.92224-301.790208L285.70112 232.144896 285.70112 192.114688zM365.66528 792.552448c44.101632 0 79.966208 35.910656 79.966208 80.058368 0 44.138496-35.863552 80.057344-79.966208 80.057344s-79.96416-35.917824-79.96416-80.057344C285.70112 828.463104 321.563648 792.552448 365.66528 792.552448zM365.66528 912.63488c22.039552 0 39.984128-17.951744 39.984128-40.025088 0-22.080512-17.943552-40.03328-39.984128-40.03328-22.040576 0-39.98208 17.951744-39.98208 40.03328C325.6832 894.683136 343.624704 912.63488 365.66528 912.63488zM725.506048 792.552448c44.100608 0 79.965184 35.910656 79.965184 80.058368 0 44.138496-35.863552 80.057344-79.965184 80.057344-44.10368 0-79.96416-35.917824-79.96416-80.057344C645.542912 828.463104 681.402368 792.552448 725.506048 792.552448zM725.506048 912.63488c22.038528 0 39.983104-17.951744 39.983104-40.025088 0-22.080512-17.943552-40.03328-39.983104-40.03328-22.0416 0-39.98208 17.951744-39.98208 40.03328C685.524992 894.683136 703.464448 912.63488 725.506048 912.63488z" p-id="5964" fill="#FF69B4"></path></svg>